<svg width="17" height="16" viewBox="0 0 17 16" fill="none" xmlns="http://www.w3.org/2000/svg">
<path d="M9.94444 4.44444L12.8917 0.760432C13.2762 0.279794 13.8583 0 14.4738 0C15.5929 0 16.5 0.907148 16.5 2.02617C16.5 2.64169 16.2202 3.22383 15.7396 3.60835L12.0556 6.55556L12.7454 7.24538C13.2286 7.72855 13.5 8.38388 13.5 9.0672C13.5 9.66992 13.2887 10.2536 12.9028 10.7166L12.3246 11.4104L5.08957 4.17536L5.7834 3.59717C6.24643 3.21131 6.83008 3 7.4328 3C8.11612 3 8.77145 3.27145 9.25462 3.75462L9.94444 4.44444Z" fill="#979797"/>
<path d="M0.5 8L3.54679 5.46101L11.039 12.9532L8.5 16L0.5 8Z" fill="#979797"/>
</svg>
