<svg width="150" height="36" viewBox="0 0 150 36" fill="none" xmlns="http://www.w3.org/2000/svg">
<path d="M11.0736 35.72C9.20163 35.72 7.61763 35.368 6.32163 34.664C5.02563 33.944 4.04163 32.992 3.36963 31.808C2.71363 30.624 2.38563 29.32 2.38563 27.896C2.38563 26.648 2.59363 25.528 3.00963 24.536C3.42563 23.528 4.06563 22.664 4.92963 21.944C5.79363 21.208 6.91363 20.608 8.28963 20.144C9.32963 19.808 10.5456 19.504 11.9376 19.232C13.3456 18.96 14.8656 18.712 16.4976 18.488C18.1456 18.248 19.8656 17.992 21.6576 17.72L19.5936 18.896C19.6096 17.104 19.2096 15.784 18.3936 14.936C17.5776 14.088 16.2016 13.664 14.2656 13.664C13.0976 13.664 11.9696 13.936 10.8816 14.48C9.79363 15.024 9.03363 15.96 8.60163 17.288L3.32163 15.632C3.96163 13.44 5.17763 11.68 6.96963 10.352C8.77763 9.024 11.2096 8.36 14.2656 8.36C16.5696 8.36 18.5936 8.736 20.3376 9.488C22.0976 10.24 23.4016 11.472 24.2496 13.184C24.7136 14.096 24.9936 15.032 25.0896 15.992C25.1856 16.936 25.2336 17.968 25.2336 19.088V35H20.1696V29.384L21.0096 30.296C19.8416 32.168 18.4736 33.544 16.9056 34.424C15.3536 35.288 13.4096 35.72 11.0736 35.72ZM12.2256 31.112C13.5376 31.112 14.6576 30.88 15.5856 30.416C16.5136 29.952 17.2496 29.384 17.7936 28.712C18.3536 28.04 18.7296 27.408 18.9216 26.816C19.2256 26.08 19.3936 25.24 19.4256 24.296C19.4736 23.336 19.4976 22.56 19.4976 21.968L21.2736 22.496C19.5296 22.768 18.0336 23.008 16.7856 23.216C15.5376 23.424 14.4656 23.624 13.5696 23.816C12.6736 23.992 11.8816 24.192 11.1936 24.416C10.5216 24.656 9.95363 24.936 9.48963 25.256C9.02563 25.576 8.66563 25.944 8.40963 26.36C8.16963 26.776 8.04963 27.264 8.04963 27.824C8.04963 28.464 8.20963 29.032 8.52963 29.528C8.84963 30.008 9.31363 30.392 9.92163 30.68C10.5456 30.968 11.3136 31.112 12.2256 31.112ZM29.0339 35V9.08H40.8179C41.6659 9.08 42.4579 9.128 43.1939 9.224C43.9299 9.32 44.5619 9.44 45.0899 9.584C46.3379 9.952 47.4419 10.672 48.4019 11.744C49.3619 12.8 49.8419 14.264 49.8419 16.136C49.8419 17.24 49.6659 18.152 49.3139 18.872C48.9619 19.576 48.4979 20.168 47.9219 20.648C47.6499 20.872 47.3699 21.064 47.0819 21.224C46.7939 21.384 46.5059 21.512 46.2179 21.608C46.8419 21.704 47.4339 21.888 47.9939 22.16C48.8739 22.592 49.6099 23.232 50.2019 24.08C50.8099 24.928 51.1139 26.12 51.1139 27.656C51.1139 29.4 50.6899 30.872 49.8419 32.072C49.0099 33.256 47.7859 34.08 46.1699 34.544C45.5779 34.704 44.8979 34.824 44.1299 34.904C43.3619 34.968 42.5779 35 41.7779 35H29.0339ZM34.8899 30.536H41.3699C41.7059 30.536 42.0739 30.504 42.4739 30.44C42.8739 30.376 43.2339 30.288 43.5539 30.176C44.1299 29.968 44.5459 29.6 44.8019 29.072C45.0739 28.544 45.2099 27.992 45.2099 27.416C45.2099 26.632 45.0099 26.008 44.6099 25.544C44.2259 25.064 43.7619 24.744 43.2179 24.584C42.8979 24.456 42.5459 24.384 42.1619 24.368C41.7939 24.336 41.4899 24.32 41.2499 24.32H34.8899V30.536ZM34.8899 19.784H39.6899C40.1859 19.784 40.6659 19.76 41.1299 19.712C41.6099 19.648 42.0099 19.544 42.3299 19.4C42.8579 19.192 43.2419 18.84 43.4819 18.344C43.7379 17.848 43.8659 17.296 43.8659 16.688C43.8659 16.048 43.7219 15.472 43.4339 14.96C43.1619 14.432 42.7219 14.08 42.1139 13.904C41.7139 13.744 41.2259 13.656 40.6499 13.64C40.0899 13.624 39.7299 13.616 39.5699 13.616H34.8899V19.784Z" fill="#F3F6F6"/>
<path d="M61.576 21.24C60.9307 21.24 60.3893 21.1227 59.952 20.888C59.52 20.648 59.192 20.3333 58.968 19.944C58.7493 19.5547 58.64 19.128 58.64 18.664C58.64 18.2107 58.7253 17.8187 58.896 17.488C59.072 17.152 59.3173 16.8747 59.632 16.656C59.9467 16.432 60.3227 16.256 60.76 16.128C61.1707 16.016 61.6293 15.92 62.136 15.84C62.648 15.7547 63.1653 15.6773 63.688 15.608C64.2107 15.5387 64.6987 15.472 65.152 15.408L64.64 15.704C64.656 14.936 64.5013 14.368 64.176 14C63.856 13.632 63.3013 13.448 62.512 13.448C61.9893 13.448 61.5307 13.568 61.136 13.808C60.7467 14.0427 60.472 14.4267 60.312 14.96L58.96 14.552C59.168 13.7947 59.5707 13.2 60.168 12.768C60.7653 12.336 61.552 12.12 62.528 12.12C63.312 12.12 63.984 12.2613 64.544 12.544C65.1093 12.8213 65.5147 13.2427 65.76 13.808C65.8827 14.0747 65.96 14.3653 65.992 14.68C66.024 14.9893 66.04 15.3147 66.04 15.656V21H64.776V18.928L65.072 19.12C64.7467 19.8187 64.2907 20.3467 63.704 20.704C63.1227 21.0613 62.4133 21.24 61.576 21.24ZM61.792 20.048C62.304 20.048 62.7467 19.9573 63.12 19.776C63.4987 19.5893 63.8027 19.3467 64.032 19.048C64.2613 18.744 64.4107 18.4133 64.48 18.056C64.56 17.7893 64.6027 17.4933 64.608 17.168C64.6187 16.8373 64.624 16.584 64.624 16.408L65.12 16.624C64.656 16.688 64.2 16.7493 63.752 16.808C63.304 16.8667 62.88 16.9307 62.48 17C62.08 17.064 61.72 17.1413 61.4 17.232C61.1653 17.3067 60.944 17.4027 60.736 17.52C60.5333 17.6373 60.368 17.7893 60.24 17.976C60.1173 18.1573 60.056 18.384 60.056 18.656C60.056 18.8907 60.1147 19.1147 60.232 19.328C60.3547 19.5413 60.5413 19.7147 60.792 19.848C61.048 19.9813 61.3813 20.048 61.792 20.048ZM59.112 35V26.36H62.792C63.0107 26.36 63.2453 26.3733 63.496 26.4C63.752 26.4213 63.984 26.4613 64.192 26.52C64.656 26.6427 65.0373 26.896 65.336 27.28C65.64 27.6587 65.792 28.1387 65.792 28.72C65.792 29.0453 65.7413 29.328 65.64 29.568C65.544 29.808 65.4053 30.016 65.224 30.192C65.144 30.272 65.056 30.344 64.96 30.408C64.864 30.472 64.768 30.5227 64.672 30.56C64.8587 30.592 65.048 30.664 65.24 30.776C65.544 30.9413 65.7813 31.1733 65.952 31.472C66.128 31.7707 66.216 32.152 66.216 32.616C66.216 33.2027 66.0747 33.688 65.792 34.072C65.5093 34.4507 65.12 34.712 64.624 34.856C64.416 34.9147 64.1867 34.9547 63.936 34.976C63.6853 34.992 63.4427 35 63.208 35H59.112ZM60.552 33.84H63.128C63.24 33.84 63.3733 33.8293 63.528 33.808C63.688 33.7867 63.8293 33.76 63.952 33.728C64.2293 33.648 64.4293 33.4987 64.552 33.28C64.68 33.0613 64.744 32.824 64.744 32.568C64.744 32.2267 64.648 31.9493 64.456 31.736C64.2693 31.5227 64.0213 31.3893 63.712 31.336C63.6 31.304 63.4773 31.2853 63.344 31.28C63.216 31.2747 63.1013 31.272 63 31.272H60.552V33.84ZM60.552 30.096H62.696C62.8453 30.096 63.0027 30.088 63.168 30.072C63.3333 30.0507 63.4773 30.016 63.6 29.968C63.8453 29.8773 64.024 29.728 64.136 29.52C64.2533 29.3067 64.312 29.0747 64.312 28.824C64.312 28.5467 64.248 28.304 64.12 28.096C63.9973 27.8827 63.808 27.736 63.552 27.656C63.3813 27.592 63.1893 27.5573 62.976 27.552C62.768 27.5413 62.6347 27.536 62.576 27.536H60.552V30.096Z" fill="white"/>
<path d="M68.12 21V12.36H74.12V13.712H69.544V21H68.12ZM79.6036 21.24C78.793 21.24 78.1103 21.04 77.5556 20.64C77.001 20.2347 76.5796 19.688 76.2916 19C76.009 18.3067 75.8676 17.5307 75.8676 16.672C75.8676 15.8027 76.009 15.024 76.2916 14.336C76.5796 13.648 77.001 13.1067 77.5556 12.712C78.1156 12.3173 78.801 12.12 79.6116 12.12C80.4116 12.12 81.0996 12.32 81.6756 12.72C82.257 13.1147 82.7023 13.656 83.0116 14.344C83.321 15.032 83.4756 15.808 83.4756 16.672C83.4756 17.536 83.321 18.312 83.0116 19C82.7023 19.688 82.257 20.2347 81.6756 20.64C81.0996 21.04 80.409 21.24 79.6036 21.24ZM75.6276 24.84V12.36H76.8996V18.72H77.0596V24.84H75.6276ZM79.4276 19.936C79.9983 19.936 80.4703 19.792 80.8436 19.504C81.217 19.216 81.497 18.8267 81.6836 18.336C81.8703 17.84 81.9636 17.2853 81.9636 16.672C81.9636 16.064 81.8703 15.5147 81.6836 15.024C81.5023 14.5333 81.2196 14.144 80.8356 13.856C80.457 13.568 79.9743 13.424 79.3876 13.424C78.8276 13.424 78.3636 13.5627 77.9956 13.84C77.6276 14.112 77.353 14.4933 77.1716 14.984C76.9903 15.4693 76.8996 16.032 76.8996 16.672C76.8996 17.3013 76.9876 17.864 77.1636 18.36C77.345 18.8507 77.6223 19.2373 77.9956 19.52C78.369 19.7973 78.8463 19.936 79.4276 19.936ZM88.9734 21.24C88.1254 21.24 87.384 21.0533 86.7494 20.68C86.12 20.3013 85.6294 19.776 85.2774 19.104C84.9254 18.4267 84.7494 17.6373 84.7494 16.736C84.7494 15.792 84.9227 14.976 85.2694 14.288C85.616 13.5947 86.0987 13.0613 86.7174 12.688C87.3414 12.3093 88.072 12.12 88.9094 12.12C89.7787 12.12 90.5174 12.32 91.1254 12.72C91.7387 13.12 92.1974 13.6907 92.5014 14.432C92.8107 15.1733 92.944 16.056 92.9014 17.08H91.4614V16.568C91.4454 15.5067 91.2294 14.7147 90.8134 14.192C90.3974 13.664 89.7787 13.4 88.9574 13.4C88.0774 13.4 87.408 13.6827 86.9494 14.248C86.4907 14.8133 86.2614 15.624 86.2614 16.68C86.2614 17.6987 86.4907 18.488 86.9494 19.048C87.408 19.608 88.0614 19.888 88.9094 19.888C89.48 19.888 89.976 19.7573 90.3974 19.496C90.8187 19.2347 91.1494 18.8587 91.3894 18.368L92.7574 18.84C92.4214 19.6027 91.9147 20.1947 91.2374 20.616C90.5654 21.032 89.8107 21.24 88.9734 21.24ZM85.7814 17.08V15.936H92.1654V17.08H85.7814ZM94.6825 21V12.36H100.683V13.712H96.1065V21H94.6825ZM104.373 21.24C103.728 21.24 103.186 21.1227 102.749 20.888C102.317 20.648 101.989 20.3333 101.765 19.944C101.546 19.5547 101.437 19.128 101.437 18.664C101.437 18.2107 101.522 17.8187 101.693 17.488C101.869 17.152 102.114 16.8747 102.429 16.656C102.744 16.432 103.12 16.256 103.557 16.128C103.968 16.016 104.426 15.92 104.933 15.84C105.445 15.7547 105.962 15.6773 106.485 15.608C107.008 15.5387 107.496 15.472 107.949 15.408L107.437 15.704C107.453 14.936 107.298 14.368 106.973 14C106.653 13.632 106.098 13.448 105.309 13.448C104.786 13.448 104.328 13.568 103.933 13.808C103.544 14.0427 103.269 14.4267 103.109 14.96L101.757 14.552C101.965 13.7947 102.368 13.2 102.965 12.768C103.562 12.336 104.349 12.12 105.325 12.12C106.109 12.12 106.781 12.2613 107.341 12.544C107.906 12.8213 108.312 13.2427 108.557 13.808C108.68 14.0747 108.757 14.3653 108.789 14.68C108.821 14.9893 108.837 15.3147 108.837 15.656V21H107.573V18.928L107.869 19.12C107.544 19.8187 107.088 20.3467 106.501 20.704C105.92 21.0613 105.21 21.24 104.373 21.24ZM104.589 20.048C105.101 20.048 105.544 19.9573 105.917 19.776C106.296 19.5893 106.6 19.3467 106.829 19.048C107.058 18.744 107.208 18.4133 107.277 18.056C107.357 17.7893 107.4 17.4933 107.405 17.168C107.416 16.8373 107.421 16.584 107.421 16.408L107.917 16.624C107.453 16.688 106.997 16.7493 106.549 16.808C106.101 16.8667 105.677 16.9307 105.277 17C104.877 17.064 104.517 17.1413 104.197 17.232C103.962 17.3067 103.741 17.4027 103.533 17.52C103.33 17.6373 103.165 17.7893 103.037 17.976C102.914 18.1573 102.853 18.384 102.853 18.656C102.853 18.8907 102.912 19.1147 103.029 19.328C103.152 19.5413 103.338 19.7147 103.589 19.848C103.845 19.9813 104.178 20.048 104.589 20.048ZM113.205 21V13.656H110.197V12.36H117.637V13.656H114.629V21H113.205ZM122.675 21.24C121.816 21.24 121.075 21.0453 120.451 20.656C119.832 20.2667 119.355 19.728 119.019 19.04C118.683 18.352 118.515 17.5627 118.515 16.672C118.515 15.7653 118.686 14.9707 119.027 14.288C119.368 13.6053 119.851 13.0747 120.475 12.696C121.099 12.312 121.832 12.12 122.675 12.12C123.539 12.12 124.283 12.3147 124.907 12.704C125.531 13.088 126.008 13.624 126.339 14.312C126.675 14.9947 126.843 15.7813 126.843 16.672C126.843 17.5733 126.675 18.368 126.339 19.056C126.003 19.7387 125.523 20.2747 124.899 20.664C124.275 21.048 123.534 21.24 122.675 21.24ZM122.675 19.888C123.571 19.888 124.238 19.5893 124.675 18.992C125.112 18.3947 125.331 17.6213 125.331 16.672C125.331 15.696 125.11 14.92 124.667 14.344C124.224 13.7627 123.56 13.472 122.675 13.472C122.072 13.472 121.576 13.608 121.187 13.88C120.798 14.152 120.507 14.528 120.315 15.008C120.123 15.488 120.027 16.0427 120.027 16.672C120.027 17.6427 120.251 18.4213 120.699 19.008C121.147 19.5947 121.806 19.888 122.675 19.888ZM132.572 21.24C131.762 21.24 131.079 21.04 130.524 20.64C129.97 20.2347 129.548 19.688 129.26 19C128.978 18.3067 128.836 17.5307 128.836 16.672C128.836 15.8027 128.978 15.024 129.26 14.336C129.548 13.648 129.97 13.1067 130.524 12.712C131.084 12.3173 131.77 12.12 132.58 12.12C133.38 12.12 134.068 12.32 134.644 12.72C135.226 13.1147 135.671 13.656 135.98 14.344C136.29 15.032 136.444 15.808 136.444 16.672C136.444 17.536 136.29 18.312 135.98 19C135.671 19.688 135.226 20.2347 134.644 20.64C134.068 21.04 133.378 21.24 132.572 21.24ZM128.596 24.84V12.36H129.868V18.72H130.028V24.84H128.596ZM132.396 19.936C132.967 19.936 133.439 19.792 133.812 19.504C134.186 19.216 134.466 18.8267 134.652 18.336C134.839 17.84 134.932 17.2853 134.932 16.672C134.932 16.064 134.839 15.5147 134.652 15.024C134.471 14.5333 134.188 14.144 133.804 13.856C133.426 13.568 132.943 13.424 132.356 13.424C131.796 13.424 131.332 13.5627 130.964 13.84C130.596 14.112 130.322 14.4933 130.14 14.984C129.959 15.4693 129.868 16.032 129.868 16.672C129.868 17.3013 129.956 17.864 130.132 18.36C130.314 18.8507 130.591 19.2373 130.964 19.52C131.338 19.7973 131.815 19.936 132.396 19.936ZM70.2791 35.24C69.6338 35.24 69.0925 35.1227 68.6551 34.888C68.2231 34.648 67.8951 34.3333 67.6711 33.944C67.4525 33.5547 67.3431 33.128 67.3431 32.664C67.3431 32.2107 67.4285 31.8187 67.5991 31.488C67.7751 31.152 68.0205 30.8747 68.3351 30.656C68.6498 30.432 69.0258 30.256 69.4631 30.128C69.8738 30.016 70.3325 29.92 70.8391 29.84C71.3511 29.7547 71.8685 29.6773 72.3911 29.608C72.9138 29.5387 73.4018 29.472 73.8551 29.408L73.3431 29.704C73.3591 28.936 73.2045 28.368 72.8791 28C72.5591 27.632 72.0045 27.448 71.2151 27.448C70.6925 27.448 70.2338 27.568 69.8391 27.808C69.4498 28.0427 69.1751 28.4267 69.0151 28.96L67.6631 28.552C67.8711 27.7947 68.2738 27.2 68.8711 26.768C69.4685 26.336 70.2551 26.12 71.2311 26.12C72.0151 26.12 72.6871 26.2613 73.2471 26.544C73.8125 26.8213 74.2178 27.2427 74.4631 27.808C74.5858 28.0747 74.6631 28.3653 74.6951 28.68C74.7271 28.9893 74.7431 29.3147 74.7431 29.656V35H73.4791V32.928L73.7751 33.12C73.4498 33.8187 72.9938 34.3467 72.4071 34.704C71.8258 35.0613 71.1165 35.24 70.2791 35.24ZM70.4951 34.048C71.0071 34.048 71.4498 33.9573 71.8231 33.776C72.2018 33.5893 72.5058 33.3467 72.7351 33.048C72.9645 32.744 73.1138 32.4133 73.1831 32.056C73.2631 31.7893 73.3058 31.4933 73.3111 31.168C73.3218 30.8373 73.3271 30.584 73.3271 30.408L73.8231 30.624C73.3591 30.688 72.9031 30.7493 72.4551 30.808C72.0071 30.8667 71.5831 30.9307 71.1831 31C70.7831 31.064 70.4231 31.1413 70.1031 31.232C69.8685 31.3067 69.6471 31.4027 69.4391 31.52C69.2365 31.6373 69.0711 31.7893 68.9431 31.976C68.8205 32.1573 68.7591 32.384 68.7591 32.656C68.7591 32.8907 68.8178 33.1147 68.9351 33.328C69.0578 33.5413 69.2445 33.7147 69.4951 33.848C69.7511 33.9813 70.0845 34.048 70.4951 34.048ZM76.8151 35L76.8231 26.36H78.2631V30.52L81.8871 26.36H83.7351L79.9191 30.68L84.1831 35H82.1911L78.2631 30.84V35H76.8151ZM87.4354 35.24C86.79 35.24 86.2487 35.1227 85.8114 34.888C85.3794 34.648 85.0514 34.3333 84.8274 33.944C84.6087 33.5547 84.4994 33.128 84.4994 32.664C84.4994 32.2107 84.5847 31.8187 84.7554 31.488C84.9314 31.152 85.1767 30.8747 85.4914 30.656C85.806 30.432 86.182 30.256 86.6194 30.128C87.03 30.016 87.4887 29.92 87.9954 29.84C88.5074 29.7547 89.0247 29.6773 89.5474 29.608C90.07 29.5387 90.558 29.472 91.0114 29.408L90.4994 29.704C90.5154 28.936 90.3607 28.368 90.0354 28C89.7154 27.632 89.1607 27.448 88.3714 27.448C87.8487 27.448 87.39 27.568 86.9954 27.808C86.606 28.0427 86.3314 28.4267 86.1714 28.96L84.8194 28.552C85.0274 27.7947 85.43 27.2 86.0274 26.768C86.6247 26.336 87.4114 26.12 88.3874 26.12C89.1714 26.12 89.8434 26.2613 90.4034 26.544C90.9687 26.8213 91.374 27.2427 91.6194 27.808C91.742 28.0747 91.8194 28.3653 91.8514 28.68C91.8834 28.9893 91.8994 29.3147 91.8994 29.656V35H90.6354V32.928L90.9314 33.12C90.606 33.8187 90.15 34.3467 89.5634 34.704C88.982 35.0613 88.2727 35.24 87.4354 35.24ZM87.6514 34.048C88.1634 34.048 88.606 33.9573 88.9794 33.776C89.358 33.5893 89.662 33.3467 89.8914 33.048C90.1207 32.744 90.27 32.4133 90.3394 32.056C90.4194 31.7893 90.462 31.4933 90.4674 31.168C90.478 30.8373 90.4834 30.584 90.4834 30.408L90.9794 30.624C90.5154 30.688 90.0594 30.7493 89.6114 30.808C89.1634 30.8667 88.7394 30.9307 88.3394 31C87.9394 31.064 87.5794 31.1413 87.2594 31.232C87.0247 31.3067 86.8034 31.4027 86.5954 31.52C86.3927 31.6373 86.2274 31.7893 86.0994 31.976C85.9767 32.1573 85.9154 32.384 85.9154 32.656C85.9154 32.8907 85.974 33.1147 86.0914 33.328C86.214 33.5413 86.4007 33.7147 86.6514 33.848C86.9074 33.9813 87.2407 34.048 87.6514 34.048ZM93.9714 35V26.36H95.3954V30H99.9394V26.36H101.363V35H99.9394V31.352H95.3954V35H93.9714ZM107.244 35.24C106.37 35.24 105.626 35.0453 105.012 34.656C104.404 34.2613 103.94 33.72 103.62 33.032C103.3 32.344 103.135 31.56 103.124 30.68C103.135 29.7787 103.303 28.9867 103.628 28.304C103.959 27.616 104.431 27.08 105.044 26.696C105.658 26.312 106.396 26.12 107.26 26.12C108.172 26.12 108.956 26.344 109.612 26.792C110.274 27.24 110.716 27.8533 110.94 28.632L109.532 29.056C109.351 28.5547 109.055 28.1653 108.644 27.888C108.239 27.6107 107.772 27.472 107.244 27.472C106.652 27.472 106.164 27.6107 105.78 27.888C105.396 28.16 105.111 28.5387 104.924 29.024C104.738 29.504 104.642 30.056 104.636 30.68C104.647 31.64 104.868 32.416 105.3 33.008C105.738 33.5947 106.386 33.888 107.244 33.888C107.81 33.888 108.279 33.76 108.652 33.504C109.026 33.2427 109.308 32.8667 109.5 32.376L110.94 32.752C110.642 33.5573 110.175 34.1733 109.54 34.6C108.906 35.0267 108.14 35.24 107.244 35.24ZM119.645 26.36V35H118.269V28.632L113.741 35H112.565V26.36H113.941V32.64L118.477 26.36H119.645ZM125.606 25.352C125.206 25.352 124.84 25.2533 124.51 25.056C124.179 24.8587 123.915 24.5973 123.718 24.272C123.52 23.9413 123.422 23.5733 123.422 23.168H124.574C124.574 23.4507 124.675 23.6933 124.878 23.896C125.08 24.0987 125.323 24.2 125.606 24.2C125.894 24.2 126.136 24.0987 126.334 23.896C126.536 23.6933 126.638 23.4507 126.638 23.168H127.79C127.79 23.5733 127.691 23.9413 127.494 24.272C127.302 24.5973 127.038 24.8587 126.702 25.056C126.371 25.2533 126.006 25.352 125.606 25.352ZM128.958 26.36V35H127.582V28.632L123.054 35H121.878V26.36H123.254V32.64L127.79 26.36H128.958Z" fill="#979797"/>
</svg>
